<svg id="Layer_35" enable-background="new 0 0 64 64" height="512" viewBox="0 0 64 64" width="512" xmlns="http://www.w3.org/2000/svg"><path d="m53 22h2v-21h-2.176l-13.863 5.041 14.039 4.68z"/><path d="m27.5 37c-.827 0-1.5.673-1.5 1.5v7.031c0 2.472-1.846 4.6-4.293 4.95l-3.707.519-1-.003v.003h-1c-.035 0-.068-.005-.103-.005l-2.039-.005-3.565-.509c-2.447-.35-4.293-2.478-4.293-4.95v-7.031c0-.827-.673-1.5-1.5-1.5s-1.5.673-1.5 1.5v7.894c0 3.349 2.388 6.24 5.677 6.874l2.323.447v7.285h10v-7.285l2.323-.448c3.289-.633 5.677-3.524 5.677-6.873v-7.894c0-.827-.673-1.5-1.5-1.5z"/><circle cx="16" cy="45" r="4"/><path d="m59.5 37c-.827 0-1.5.673-1.5 1.5v7.031c0 2.472-1.846 4.6-4.293 4.95l-3.707.519-1-.003v.003h-1c-.035 0-.068-.005-.103-.005l-2.039-.005-3.565-.509c-2.447-.35-4.293-2.478-4.293-4.95v-7.031c0-.827-.673-1.5-1.5-1.5s-1.5.673-1.5 1.5v7.894c0 3.349 2.388 6.24 5.677 6.874l2.323.447v7.285h10v-7.285l2.323-.448c3.289-.633 5.677-3.524 5.677-6.873v-5.394-2.5c0-.827-.673-1.5-1.5-1.5z"/><circle cx="20" cy="7" r="4"/><path d="m6.448 29c.574 0 1.056-.308 1.275-.784l5.637-12.216h2.64v22.768l3-2.16v-10.608h2.414l3.586 3.586v2.702l3-2.16v-.471c0-.79-.32-1.562-.879-2.121l-3.122-3.122.001-8.261.836-.139c3.428-.571 6.335-2.8 7.777-5.963l2.254-4.945c.088-.194.133-.399.133-.611 0-.831-.664-1.495-1.48-1.495-.577 0-1.051.293-1.286.764l-2.129 4.26c-1.535 3.069-4.619 4.976-8.049 4.976h-5.961c-2.708 0-5.197 1.585-6.343 4.04l-4.617 9.893c-.088.189-.135.399-.135.608 0 .81.649 1.459 1.448 1.459z"/><path d="m41.322 23-22.922 16.504c.318.14.623.305.91.496h4.69v-1.5c0-1.93 1.57-3.5 3.5-3.5s3.5 1.57 3.5 3.5v1.5h2v-1.5c0-1.93 1.57-3.5 3.5-3.5s3.5 1.57 3.5 3.5v1.5h4.69c.95-.631 2.087-1 3.31-1s2.36.369 3.31 1h4.69v-1.5c0-1.93 1.57-3.5 3.5-3.5.539 0 1.044.133 1.5.351v-12.351zm3.678 4h-2v-2h2zm4 0h-2v-2h2zm4 0h-2v-2h2z"/><circle cx="48" cy="45" r="4"/></svg>